<svg width="490" height="360" viewBox="0 0 490 360" fill="none" xmlns="http://www.w3.org/2000/svg">
<g filter="url(#filter0_f_56_2699)">
<circle cx="340" cy="150" r="50" fill="#0296BF"/>
</g>
<g filter="url(#filter1_f_56_2699)">
<circle cx="290" cy="200" r="29" fill="#BF02BF"/>
</g>
<g filter="url(#filter2_f_56_2699)">
<circle cx="147" cy="213" r="47" fill="#002DCD"/>
</g>
<path d="M163.6 178.1L159.48 192H156.9L153.98 181.48L150.88 192L148.32 192.02L144.38 178.1H146.8L149.68 189.42L152.8 178.1H155.36L158.26 189.36L161.16 178.1H163.6ZM175.58 186.22C175.58 186.633 175.554 187.007 175.5 187.34H167.08C167.147 188.22 167.474 188.927 168.06 189.46C168.647 189.993 169.367 190.26 170.22 190.26C171.447 190.26 172.314 189.747 172.82 188.72H175.28C174.947 189.733 174.34 190.567 173.46 191.22C172.594 191.86 171.514 192.18 170.22 192.18C169.167 192.18 168.22 191.947 167.38 191.48C166.554 191 165.9 190.333 165.42 189.48C164.954 188.613 164.72 187.613 164.72 186.48C164.72 185.347 164.947 184.353 165.4 183.5C165.867 182.633 166.514 181.967 167.34 181.5C168.18 181.033 169.14 180.8 170.22 180.8C171.26 180.8 172.187 181.027 173 181.48C173.814 181.933 174.447 182.573 174.9 183.4C175.354 184.213 175.58 185.153 175.58 186.22ZM173.2 185.5C173.187 184.66 172.887 183.987 172.3 183.48C171.714 182.973 170.987 182.72 170.12 182.72C169.334 182.72 168.66 182.973 168.1 183.48C167.54 183.973 167.207 184.647 167.1 185.5H173.2ZM180.104 177.2V192H177.824V177.2H180.104ZM182.338 186.48C182.338 185.347 182.564 184.353 183.018 183.5C183.484 182.633 184.124 181.967 184.938 181.5C185.751 181.033 186.684 180.8 187.738 180.8C189.071 180.8 190.171 181.12 191.038 181.76C191.918 182.387 192.511 183.287 192.818 184.46H190.358C190.158 183.913 189.838 183.487 189.398 183.18C188.958 182.873 188.404 182.72 187.738 182.72C186.804 182.72 186.058 183.053 185.498 183.72C184.951 184.373 184.678 185.293 184.678 186.48C184.678 187.667 184.951 188.593 185.498 189.26C186.058 189.927 186.804 190.26 187.738 190.26C189.058 190.26 189.931 189.68 190.358 188.52H192.818C192.498 189.64 191.898 190.533 191.018 191.2C190.138 191.853 189.044 192.18 187.738 192.18C186.684 192.18 185.751 191.947 184.938 191.48C184.124 191 183.484 190.333 183.018 189.48C182.564 188.613 182.338 187.613 182.338 186.48ZM199.87 192.18C198.83 192.18 197.89 191.947 197.05 191.48C196.21 191 195.55 190.333 195.07 189.48C194.59 188.613 194.35 187.613 194.35 186.48C194.35 185.36 194.597 184.367 195.09 183.5C195.583 182.633 196.257 181.967 197.11 181.5C197.963 181.033 198.917 180.8 199.97 180.8C201.023 180.8 201.977 181.033 202.83 181.5C203.683 181.967 204.357 182.633 204.85 183.5C205.343 184.367 205.59 185.36 205.59 186.48C205.59 187.6 205.337 188.593 204.83 189.46C204.323 190.327 203.63 191 202.75 191.48C201.883 191.947 200.923 192.18 199.87 192.18ZM199.87 190.2C200.457 190.2 201.003 190.06 201.51 189.78C202.03 189.5 202.45 189.08 202.77 188.52C203.09 187.96 203.25 187.28 203.25 186.48C203.25 185.68 203.097 185.007 202.79 184.46C202.483 183.9 202.077 183.48 201.57 183.2C201.063 182.92 200.517 182.78 199.93 182.78C199.343 182.78 198.797 182.92 198.29 183.2C197.797 183.48 197.403 183.9 197.11 184.46C196.817 185.007 196.67 185.68 196.67 186.48C196.67 187.667 196.97 188.587 197.57 189.24C198.183 189.88 198.95 190.2 199.87 190.2ZM221.184 180.8C222.05 180.8 222.824 180.98 223.504 181.34C224.197 181.7 224.737 182.233 225.124 182.94C225.524 183.647 225.724 184.5 225.724 185.5V192H223.464V185.84C223.464 184.853 223.217 184.1 222.724 183.58C222.23 183.047 221.557 182.78 220.704 182.78C219.85 182.78 219.17 183.047 218.664 183.58C218.17 184.1 217.924 184.853 217.924 185.84V192H215.664V185.84C215.664 184.853 215.417 184.1 214.924 183.58C214.43 183.047 213.757 182.78 212.904 182.78C212.05 182.78 211.37 183.047 210.864 183.58C210.37 184.1 210.124 184.853 210.124 185.84V192H207.844V180.98H210.124V182.24C210.497 181.787 210.97 181.433 211.544 181.18C212.117 180.927 212.73 180.8 213.384 180.8C214.264 180.8 215.05 180.987 215.744 181.36C216.437 181.733 216.97 182.273 217.344 182.98C217.677 182.313 218.197 181.787 218.904 181.4C219.61 181 220.37 180.8 221.184 180.8ZM238.725 186.22C238.725 186.633 238.698 187.007 238.645 187.34H230.225C230.292 188.22 230.618 188.927 231.205 189.46C231.792 189.993 232.512 190.26 233.365 190.26C234.592 190.26 235.458 189.747 235.965 188.72H238.425C238.092 189.733 237.485 190.567 236.605 191.22C235.738 191.86 234.658 192.18 233.365 192.18C232.312 192.18 231.365 191.947 230.525 191.48C229.698 191 229.045 190.333 228.565 189.48C228.098 188.613 227.865 187.613 227.865 186.48C227.865 185.347 228.092 184.353 228.545 183.5C229.012 182.633 229.658 181.967 230.485 181.5C231.325 181.033 232.285 180.8 233.365 180.8C234.405 180.8 235.332 181.027 236.145 181.48C236.958 181.933 237.592 182.573 238.045 183.4C238.498 184.213 238.725 185.153 238.725 186.22ZM236.345 185.5C236.332 184.66 236.032 183.987 235.445 183.48C234.858 182.973 234.132 182.72 233.265 182.72C232.478 182.72 231.805 182.973 231.245 183.48C230.685 183.973 230.352 184.647 230.245 185.5H236.345ZM248.824 182.84V188.94C248.824 189.353 248.917 189.653 249.104 189.84C249.304 190.013 249.637 190.1 250.104 190.1H251.504V192H249.704C248.677 192 247.891 191.76 247.344 191.28C246.797 190.8 246.524 190.02 246.524 188.94V182.84H245.224V180.98H246.524V178.24H248.824V180.98H251.504V182.84H248.824ZM258.385 192.18C257.345 192.18 256.405 191.947 255.565 191.48C254.725 191 254.065 190.333 253.585 189.48C253.105 188.613 252.865 187.613 252.865 186.48C252.865 185.36 253.112 184.367 253.605 183.5C254.099 182.633 254.772 181.967 255.625 181.5C256.479 181.033 257.432 180.8 258.485 180.8C259.539 180.8 260.492 181.033 261.345 181.5C262.199 181.967 262.872 182.633 263.365 183.5C263.859 184.367 264.105 185.36 264.105 186.48C264.105 187.6 263.852 188.593 263.345 189.46C262.839 190.327 262.145 191 261.265 191.48C260.399 191.947 259.439 192.18 258.385 192.18ZM258.385 190.2C258.972 190.2 259.519 190.06 260.025 189.78C260.545 189.5 260.965 189.08 261.285 188.52C261.605 187.96 261.765 187.28 261.765 186.48C261.765 185.68 261.612 185.007 261.305 184.46C260.999 183.9 260.592 183.48 260.085 183.2C259.579 182.92 259.032 182.78 258.445 182.78C257.859 182.78 257.312 182.92 256.805 183.2C256.312 183.48 255.919 183.9 255.625 184.46C255.332 185.007 255.185 185.68 255.185 186.48C255.185 187.667 255.485 188.587 256.085 189.24C256.699 189.88 257.465 190.2 258.385 190.2ZM284.895 180.8C285.761 180.8 286.535 180.98 287.215 181.34C287.908 181.7 288.448 182.233 288.835 182.94C289.235 183.647 289.435 184.5 289.435 185.5V192H287.175V185.84C287.175 184.853 286.928 184.1 286.435 183.58C285.941 183.047 285.268 182.78 284.415 182.78C283.561 182.78 282.881 183.047 282.375 183.58C281.881 184.1 281.635 184.853 281.635 185.84V192H279.375V185.84C279.375 184.853 279.128 184.1 278.635 183.58C278.141 183.047 277.468 182.78 276.615 182.78C275.761 182.78 275.081 183.047 274.575 183.58C274.081 184.1 273.835 184.853 273.835 185.84V192H271.555V180.98H273.835V182.24C274.208 181.787 274.681 181.433 275.255 181.18C275.828 180.927 276.441 180.8 277.095 180.8C277.975 180.8 278.761 180.987 279.455 181.36C280.148 181.733 280.681 182.273 281.055 182.98C281.388 182.313 281.908 181.787 282.615 181.4C283.321 181 284.081 180.8 284.895 180.8ZM302.256 180.98L295.496 197.18H293.136L295.376 191.82L291.036 180.98H293.576L296.676 189.38L299.896 180.98H302.256ZM319.232 182.1C318.872 181.407 318.372 180.887 317.732 180.54C317.092 180.18 316.352 180 315.512 180C314.592 180 313.772 180.207 313.052 180.62C312.332 181.033 311.765 181.62 311.352 182.38C310.952 183.14 310.752 184.02 310.752 185.02C310.752 186.02 310.952 186.907 311.352 187.68C311.765 188.44 312.332 189.027 313.052 189.44C313.772 189.853 314.592 190.06 315.512 190.06C316.752 190.06 317.759 189.713 318.532 189.02C319.305 188.327 319.779 187.387 319.952 186.2H314.732V184.38H322.392V186.16C322.245 187.24 321.859 188.233 321.232 189.14C320.619 190.047 319.812 190.773 318.812 191.32C317.825 191.853 316.725 192.12 315.512 192.12C314.205 192.12 313.012 191.82 311.932 191.22C310.852 190.607 309.992 189.76 309.352 188.68C308.725 187.6 308.412 186.38 308.412 185.02C308.412 183.66 308.725 182.44 309.352 181.36C309.992 180.28 310.852 179.44 311.932 178.84C313.025 178.227 314.219 177.92 315.512 177.92C316.992 177.92 318.305 178.287 319.452 179.02C320.612 179.74 321.452 180.767 321.972 182.1H319.232ZM325.801 179.52C325.387 179.52 325.041 179.38 324.761 179.1C324.481 178.82 324.341 178.473 324.341 178.06C324.341 177.647 324.481 177.3 324.761 177.02C325.041 176.74 325.387 176.6 325.801 176.6C326.201 176.6 326.541 176.74 326.821 177.02C327.101 177.3 327.241 177.647 327.241 178.06C327.241 178.473 327.101 178.82 326.821 179.1C326.541 179.38 326.201 179.52 325.801 179.52ZM326.921 180.98V192H324.641V180.98H326.921ZM332.574 182.84V188.94C332.574 189.353 332.667 189.653 332.854 189.84C333.054 190.013 333.387 190.1 333.854 190.1H335.254V192H333.454C332.427 192 331.641 191.76 331.094 191.28C330.547 190.8 330.274 190.02 330.274 188.94V182.84H328.974V180.98H330.274V178.24H332.574V180.98H335.254V182.84H332.574ZM348.455 178.1V192H346.175V185.92H339.635V192H337.355V178.1H339.635V184.06H346.175V178.1H348.455ZM361.437 180.98V192H359.157V190.7C358.797 191.153 358.324 191.513 357.737 191.78C357.164 192.033 356.55 192.16 355.897 192.16C355.03 192.16 354.25 191.98 353.557 191.62C352.877 191.26 352.337 190.727 351.937 190.02C351.55 189.313 351.357 188.46 351.357 187.46V180.98H353.617V187.12C353.617 188.107 353.864 188.867 354.357 189.4C354.85 189.92 355.524 190.18 356.377 190.18C357.23 190.18 357.904 189.92 358.397 189.4C358.904 188.867 359.157 188.107 359.157 187.12V180.98H361.437ZM366.725 182.62C367.112 182.087 367.639 181.653 368.305 181.32C368.985 180.973 369.739 180.8 370.565 180.8C371.539 180.8 372.419 181.033 373.205 181.5C373.992 181.967 374.612 182.633 375.065 183.5C375.519 184.353 375.745 185.333 375.745 186.44C375.745 187.547 375.519 188.54 375.065 189.42C374.612 190.287 373.985 190.967 373.185 191.46C372.399 191.94 371.525 192.18 370.565 192.18C369.712 192.18 368.952 192.013 368.285 191.68C367.632 191.347 367.112 190.92 366.725 190.4V192H364.445V177.2H366.725V182.62ZM373.425 186.44C373.425 185.68 373.265 185.027 372.945 184.48C372.639 183.92 372.225 183.5 371.705 183.22C371.199 182.927 370.652 182.78 370.065 182.78C369.492 182.78 368.945 182.927 368.425 183.22C367.919 183.513 367.505 183.94 367.185 184.5C366.879 185.06 366.725 185.72 366.725 186.48C366.725 187.24 366.879 187.907 367.185 188.48C367.505 189.04 367.919 189.467 368.425 189.76C368.945 190.053 369.492 190.2 370.065 190.2C370.652 190.2 371.199 190.053 371.705 189.76C372.225 189.453 372.639 189.013 372.945 188.44C373.265 187.867 373.425 187.2 373.425 186.44Z" fill="#F1F3FF"/>
<defs>
<filter id="filter0_f_56_2699" x="190" y="0" width="300" height="300" filterUnits="userSpaceOnUse" color-interpolation-filters="sRGB">
<feFlood flood-opacity="0" result="BackgroundImageFix"/>
<feBlend mode="normal" in="SourceGraphic" in2="BackgroundImageFix" result="shape"/>
<feGaussianBlur stdDeviation="50" result="effect1_foregroundBlur_56_2699"/>
</filter>
<filter id="filter1_f_56_2699" x="161" y="71" width="258" height="258" filterUnits="userSpaceOnUse" color-interpolation-filters="sRGB">
<feFlood flood-opacity="0" result="BackgroundImageFix"/>
<feBlend mode="normal" in="SourceGraphic" in2="BackgroundImageFix" result="shape"/>
<feGaussianBlur stdDeviation="50" result="effect1_foregroundBlur_56_2699"/>
</filter>
<filter id="filter2_f_56_2699" x="0" y="66" width="294" height="294" filterUnits="userSpaceOnUse" color-interpolation-filters="sRGB">
<feFlood flood-opacity="0" result="BackgroundImageFix"/>
<feBlend mode="normal" in="SourceGraphic" in2="BackgroundImageFix" result="shape"/>
<feGaussianBlur stdDeviation="50" result="effect1_foregroundBlur_56_2699"/>
</filter>
</defs>
</svg>
