<svg width="371" height="34" viewBox="0 0 371 34" fill="none" xmlns="http://www.w3.org/2000/svg">
<path d="M31.36 2.76L24.768 25H20.64L15.968 8.168L11.008 25L6.912 25.032L0.608 2.76H4.48L9.088 20.872L14.08 2.76H18.176L22.816 20.776L27.456 2.76H31.36ZM50.5288 15.752C50.5288 16.4133 50.4861 17.0107 50.4008 17.544H36.9288C37.0354 18.952 37.5581 20.0827 38.4968 20.936C39.4354 21.7893 40.5874 22.216 41.9528 22.216C43.9154 22.216 45.3021 21.3947 46.1128 19.752H50.0487C49.5154 21.3733 48.5448 22.7067 47.1368 23.752C45.7501 24.776 44.0221 25.288 41.9528 25.288C40.2674 25.288 38.7528 24.9147 37.4088 24.168C36.0861 23.4 35.0408 22.3333 34.2728 20.968C33.5261 19.5813 33.1528 17.9813 33.1528 16.168C33.1528 14.3547 33.5154 12.7653 34.2408 11.4C34.9874 10.0133 36.0221 8.94667 37.3448 8.2C38.6888 7.45333 40.2248 7.08 41.9528 7.08C43.6168 7.08 45.0994 7.44267 46.4008 8.168C47.7021 8.89333 48.7154 9.91733 49.4408 11.24C50.1661 12.5413 50.5288 14.0453 50.5288 15.752ZM46.7208 14.6C46.6994 13.256 46.2194 12.1787 45.2808 11.368C44.3421 10.5573 43.1794 10.152 41.7928 10.152C40.5341 10.152 39.4568 10.5573 38.5608 11.368C37.6648 12.1573 37.1314 13.2347 36.9608 14.6H46.7208ZM57.7668 1.32V25H54.1188V1.32H57.7668ZM61.3403 16.168C61.3403 14.3547 61.7029 12.7653 62.4283 11.4C63.1749 10.0133 64.1989 8.94667 65.5003 8.2C66.8016 7.45333 68.2949 7.08 69.9803 7.08C72.1136 7.08 73.8736 7.592 75.2603 8.616C76.6683 9.61867 77.6176 11.0587 78.1083 12.936H74.1723C73.8523 12.0613 73.3403 11.3787 72.6363 10.888C71.9323 10.3973 71.0469 10.152 69.9803 10.152C68.4869 10.152 67.2923 10.6853 66.3963 11.752C65.5216 12.7973 65.0843 14.2693 65.0843 16.168C65.0843 18.0667 65.5216 19.5493 66.3963 20.616C67.2923 21.6827 68.4869 22.216 69.9803 22.216C72.0923 22.216 73.4896 21.288 74.1723 19.432H78.1083C77.5963 21.224 76.6363 22.6533 75.2283 23.72C73.8203 24.7653 72.0709 25.288 69.9803 25.288C68.2949 25.288 66.8016 24.9147 65.5003 24.168C64.1989 23.4 63.1749 22.3333 62.4283 20.968C61.7029 19.5813 61.3403 17.9813 61.3403 16.168ZM89.3918 25.288C87.7278 25.288 86.2238 24.9147 84.8798 24.168C83.5358 23.4 82.4798 22.3333 81.7118 20.968C80.9438 19.5813 80.5598 17.9813 80.5598 16.168C80.5598 14.376 80.9544 12.7867 81.7438 11.4C82.5331 10.0133 83.6104 8.94667 84.9758 8.2C86.3411 7.45333 87.8664 7.08 89.5518 7.08C91.2371 7.08 92.7624 7.45333 94.1278 8.2C95.4931 8.94667 96.5704 10.0133 97.3598 11.4C98.1491 12.7867 98.5438 14.376 98.5438 16.168C98.5438 17.96 98.1384 19.5493 97.3278 20.936C96.5171 22.3227 95.4078 23.4 93.9998 24.168C92.6131 24.9147 91.0771 25.288 89.3918 25.288ZM89.3918 22.12C90.3304 22.12 91.2051 21.896 92.0158 21.448C92.8478 21 93.5198 20.328 94.0318 19.432C94.5438 18.536 94.7998 17.448 94.7998 16.168C94.7998 14.888 94.5544 13.8107 94.0638 12.936C93.5731 12.04 92.9224 11.368 92.1118 10.92C91.3011 10.472 90.4264 10.248 89.4878 10.248C88.5491 10.248 87.6744 10.472 86.8638 10.92C86.0744 11.368 85.4451 12.04 84.9758 12.936C84.5064 13.8107 84.2718 14.888 84.2718 16.168C84.2718 18.0667 84.7518 19.5387 85.7118 20.584C86.6931 21.608 87.9198 22.12 89.3918 22.12ZM123.494 7.08C124.881 7.08 126.118 7.368 127.206 7.944C128.315 8.52 129.179 9.37333 129.798 10.504C130.438 11.6347 130.758 13 130.758 14.6V25H127.142V15.144C127.142 13.5653 126.747 12.36 125.958 11.528C125.169 10.6747 124.091 10.248 122.726 10.248C121.361 10.248 120.273 10.6747 119.462 11.528C118.673 12.36 118.278 13.5653 118.278 15.144V25H114.662V15.144C114.662 13.5653 114.267 12.36 113.478 11.528C112.689 10.6747 111.611 10.248 110.246 10.248C108.881 10.248 107.793 10.6747 106.982 11.528C106.193 12.36 105.798 13.5653 105.798 15.144V25H102.15V7.368H105.798V9.384C106.395 8.65867 107.153 8.09333 108.07 7.688C108.987 7.28267 109.969 7.08 111.014 7.08C112.422 7.08 113.681 7.37867 114.79 7.976C115.899 8.57333 116.753 9.43733 117.35 10.568C117.883 9.50133 118.715 8.65867 119.846 8.04C120.977 7.4 122.193 7.08 123.494 7.08ZM151.56 15.752C151.56 16.4133 151.517 17.0107 151.432 17.544H137.96C138.067 18.952 138.589 20.0827 139.528 20.936C140.467 21.7893 141.619 22.216 142.984 22.216C144.947 22.216 146.333 21.3947 147.144 19.752H151.08C150.547 21.3733 149.576 22.7067 148.168 23.752C146.781 24.776 145.053 25.288 142.984 25.288C141.299 25.288 139.784 24.9147 138.44 24.168C137.117 23.4 136.072 22.3333 135.304 20.968C134.557 19.5813 134.184 17.9813 134.184 16.168C134.184 14.3547 134.547 12.7653 135.272 11.4C136.019 10.0133 137.053 8.94667 138.376 8.2C139.72 7.45333 141.256 7.08 142.984 7.08C144.648 7.08 146.131 7.44267 147.432 8.168C148.733 8.89333 149.747 9.91733 150.472 11.24C151.197 12.5413 151.56 14.0453 151.56 15.752ZM147.752 14.6C147.731 13.256 147.251 12.1787 146.312 11.368C145.373 10.5573 144.211 10.152 142.824 10.152C141.565 10.152 140.488 10.5573 139.592 11.368C138.696 12.1573 138.163 13.2347 137.992 14.6H147.752ZM167.719 10.344V20.104C167.719 20.7653 167.868 21.2453 168.167 21.544C168.487 21.8213 169.02 21.96 169.767 21.96H172.007V25H169.127C167.484 25 166.225 24.616 165.351 23.848C164.476 23.08 164.039 21.832 164.039 20.104V10.344H161.959V7.368H164.039V2.984H167.719V7.368H172.007V10.344H167.719ZM183.017 25.288C181.353 25.288 179.849 24.9147 178.505 24.168C177.161 23.4 176.105 22.3333 175.337 20.968C174.569 19.5813 174.185 17.9813 174.185 16.168C174.185 14.376 174.579 12.7867 175.369 11.4C176.158 10.0133 177.235 8.94667 178.601 8.2C179.966 7.45333 181.491 7.08 183.177 7.08C184.862 7.08 186.387 7.45333 187.753 8.2C189.118 8.94667 190.195 10.0133 190.985 11.4C191.774 12.7867 192.169 14.376 192.169 16.168C192.169 17.96 191.763 19.5493 190.953 20.936C190.142 22.3227 189.033 23.4 187.625 24.168C186.238 24.9147 184.702 25.288 183.017 25.288ZM183.017 22.12C183.955 22.12 184.83 21.896 185.641 21.448C186.473 21 187.145 20.328 187.657 19.432C188.169 18.536 188.425 17.448 188.425 16.168C188.425 14.888 188.179 13.8107 187.689 12.936C187.198 12.04 186.547 11.368 185.737 10.92C184.926 10.472 184.051 10.248 183.113 10.248C182.174 10.248 181.299 10.472 180.489 10.92C179.699 11.368 179.07 12.04 178.601 12.936C178.131 13.8107 177.897 14.888 177.897 16.168C177.897 18.0667 178.377 19.5387 179.337 20.584C180.318 21.608 181.545 22.12 183.017 22.12ZM225.432 7.08C226.818 7.08 228.056 7.368 229.144 7.944C230.253 8.52 231.117 9.37333 231.736 10.504C232.376 11.6347 232.696 13 232.696 14.6V25H229.08V15.144C229.08 13.5653 228.685 12.36 227.896 11.528C227.106 10.6747 226.029 10.248 224.664 10.248C223.298 10.248 222.21 10.6747 221.4 11.528C220.61 12.36 220.216 13.5653 220.216 15.144V25H216.6V15.144C216.6 13.5653 216.205 12.36 215.416 11.528C214.626 10.6747 213.549 10.248 212.184 10.248C210.818 10.248 209.73 10.6747 208.92 11.528C208.13 12.36 207.736 13.5653 207.736 15.144V25H204.088V7.368H207.736V9.384C208.333 8.65867 209.09 8.09333 210.008 7.688C210.925 7.28267 211.906 7.08 212.952 7.08C214.36 7.08 215.618 7.37867 216.728 7.976C217.837 8.57333 218.69 9.43733 219.288 10.568C219.821 9.50133 220.653 8.65867 221.784 8.04C222.914 7.4 224.13 7.08 225.432 7.08ZM253.21 7.368L242.394 33.288H238.618L242.202 24.712L235.258 7.368H239.322L244.282 20.808L249.434 7.368H253.21ZM280.371 9.16C279.795 8.05067 278.995 7.21867 277.971 6.664C276.947 6.088 275.763 5.8 274.419 5.8C272.947 5.8 271.635 6.13067 270.483 6.792C269.331 7.45333 268.424 8.392 267.763 9.608C267.123 10.824 266.803 12.232 266.803 13.832C266.803 15.432 267.123 16.8507 267.763 18.088C268.424 19.304 269.331 20.2427 270.483 20.904C271.635 21.5653 272.947 21.896 274.419 21.896C276.403 21.896 278.014 21.3413 279.251 20.232C280.488 19.1227 281.246 17.6187 281.523 15.72H273.171V12.808H285.427V15.656C285.192 17.384 284.574 18.9733 283.571 20.424C282.59 21.8747 281.299 23.0373 279.699 23.912C278.12 24.7653 276.36 25.192 274.419 25.192C272.328 25.192 270.419 24.712 268.691 23.752C266.963 22.7707 265.587 21.416 264.563 19.688C263.56 17.96 263.059 16.008 263.059 13.832C263.059 11.656 263.56 9.704 264.563 7.976C265.587 6.248 266.963 4.904 268.691 3.944C270.44 2.96266 272.35 2.472 274.419 2.472C276.787 2.472 278.888 3.05866 280.723 4.232C282.579 5.384 283.923 7.02667 284.755 9.16H280.371ZM290.881 5.032C290.22 5.032 289.665 4.808 289.217 4.36C288.769 3.912 288.545 3.35733 288.545 2.696C288.545 2.03467 288.769 1.48 289.217 1.032C289.665 0.583999 290.22 0.359999 290.881 0.359999C291.521 0.359999 292.065 0.583999 292.513 1.032C292.961 1.48 293.185 2.03467 293.185 2.696C293.185 3.35733 292.961 3.912 292.513 4.36C292.065 4.808 291.521 5.032 290.881 5.032ZM292.673 7.368V25H289.025V7.368H292.673ZM301.719 10.344V20.104C301.719 20.7653 301.868 21.2453 302.167 21.544C302.487 21.8213 303.02 21.96 303.767 21.96H306.007V25H303.127C301.484 25 300.225 24.616 299.351 23.848C298.476 23.08 298.039 21.832 298.039 20.104V10.344H295.959V7.368H298.039V2.984H301.719V7.368H306.007V10.344H301.719ZM327.129 2.76V25H323.481V15.272H313.017V25H309.369V2.76H313.017V12.296H323.481V2.76H327.129ZM347.899 7.368V25H344.251V22.92C343.675 23.6453 342.918 24.2213 341.979 24.648C341.062 25.0533 340.081 25.256 339.035 25.256C337.649 25.256 336.401 24.968 335.291 24.392C334.203 23.816 333.339 22.9627 332.699 21.832C332.081 20.7013 331.771 19.336 331.771 17.736V7.368H335.387V17.192C335.387 18.7707 335.782 19.9867 336.571 20.84C337.361 21.672 338.438 22.088 339.803 22.088C341.169 22.088 342.246 21.672 343.035 20.84C343.846 19.9867 344.251 18.7707 344.251 17.192V7.368H347.899ZM356.361 9.992C356.979 9.13867 357.822 8.44533 358.889 7.912C359.977 7.35733 361.182 7.08 362.505 7.08C364.062 7.08 365.47 7.45333 366.729 8.2C367.987 8.94667 368.979 10.0133 369.705 11.4C370.43 12.7653 370.793 14.3333 370.793 16.104C370.793 17.8747 370.43 19.464 369.705 20.872C368.979 22.2587 367.977 23.3467 366.697 24.136C365.438 24.904 364.041 25.288 362.505 25.288C361.139 25.288 359.923 25.0213 358.857 24.488C357.811 23.9547 356.979 23.272 356.361 22.44V25H352.713V1.32H356.361V9.992ZM367.081 16.104C367.081 14.888 366.825 13.8427 366.312 12.968C365.822 12.072 365.161 11.4 364.329 10.952C363.518 10.4827 362.643 10.248 361.705 10.248C360.787 10.248 359.913 10.4827 359.081 10.952C358.27 11.4213 357.609 12.104 357.097 13C356.606 13.896 356.361 14.952 356.361 16.168C356.361 17.384 356.606 18.4507 357.097 19.368C357.609 20.264 358.27 20.9467 359.081 21.416C359.913 21.8853 360.787 22.12 361.705 22.12C362.643 22.12 363.518 21.8853 364.329 21.416C365.161 20.9253 365.822 20.2213 366.312 19.304C366.825 18.3867 367.081 17.32 367.081 16.104Z" fill="#F1F3FF"/>
</svg>
