<svg width="490" height="360" viewBox="0 0 490 360" fill="none" xmlns="http://www.w3.org/2000/svg">
<g filter="url(#filter0_f_56_2699)">
<circle cx="340" cy="150" r="50" fill="#0296BF"/>
</g>
<g filter="url(#filter1_f_56_2699)">
<circle cx="290" cy="200" r="29" fill="#BF02BF"/>
</g>
<g filter="url(#filter2_f_56_2699)">
<circle cx="147" cy="213" r="47" fill="#002DCD"/>
</g>
<path d="M95.36 182.76L88.768 205H84.64L79.968 188.168L75.008 205L70.912 205.032L64.608 182.76H68.48L73.088 200.872L78.08 182.76H82.176L86.816 200.776L91.456 182.76H95.36ZM114.529 195.752C114.529 196.413 114.486 197.011 114.401 197.544H100.929C101.035 198.952 101.558 200.083 102.497 200.936C103.435 201.789 104.587 202.216 105.953 202.216C107.915 202.216 109.302 201.395 110.113 199.752H114.049C113.515 201.373 112.545 202.707 111.137 203.752C109.75 204.776 108.022 205.288 105.953 205.288C104.267 205.288 102.753 204.915 101.409 204.168C100.086 203.4 99.0408 202.333 98.2728 200.968C97.5261 199.581 97.1528 197.981 97.1528 196.168C97.1528 194.355 97.5154 192.765 98.2408 191.4C98.9874 190.013 100.022 188.947 101.345 188.2C102.689 187.453 104.225 187.08 105.953 187.08C107.617 187.08 109.099 187.443 110.401 188.168C111.702 188.893 112.715 189.917 113.441 191.24C114.166 192.541 114.529 194.045 114.529 195.752ZM110.721 194.6C110.699 193.256 110.219 192.179 109.281 191.368C108.342 190.557 107.179 190.152 105.793 190.152C104.534 190.152 103.457 190.557 102.561 191.368C101.665 192.157 101.131 193.235 100.961 194.6H110.721ZM121.767 181.32V205H118.119V181.32H121.767ZM125.34 196.168C125.34 194.355 125.703 192.765 126.428 191.4C127.175 190.013 128.199 188.947 129.5 188.2C130.802 187.453 132.295 187.08 133.98 187.08C136.114 187.08 137.874 187.592 139.26 188.616C140.668 189.619 141.618 191.059 142.108 192.936H138.172C137.852 192.061 137.34 191.379 136.636 190.888C135.932 190.397 135.047 190.152 133.98 190.152C132.487 190.152 131.292 190.685 130.396 191.752C129.522 192.797 129.084 194.269 129.084 196.168C129.084 198.067 129.522 199.549 130.396 200.616C131.292 201.683 132.487 202.216 133.98 202.216C136.092 202.216 137.49 201.288 138.172 199.432H142.108C141.596 201.224 140.636 202.653 139.228 203.72C137.82 204.765 136.071 205.288 133.98 205.288C132.295 205.288 130.802 204.915 129.5 204.168C128.199 203.4 127.175 202.333 126.428 200.968C125.703 199.581 125.34 197.981 125.34 196.168ZM153.392 205.288C151.728 205.288 150.224 204.915 148.88 204.168C147.536 203.4 146.48 202.333 145.712 200.968C144.944 199.581 144.56 197.981 144.56 196.168C144.56 194.376 144.954 192.787 145.744 191.4C146.533 190.013 147.61 188.947 148.976 188.2C150.341 187.453 151.866 187.08 153.552 187.08C155.237 187.08 156.762 187.453 158.128 188.2C159.493 188.947 160.57 190.013 161.36 191.4C162.149 192.787 162.544 194.376 162.544 196.168C162.544 197.96 162.138 199.549 161.328 200.936C160.517 202.323 159.408 203.4 158 204.168C156.613 204.915 155.077 205.288 153.392 205.288ZM153.392 202.12C154.33 202.12 155.205 201.896 156.016 201.448C156.848 201 157.52 200.328 158.032 199.432C158.544 198.536 158.8 197.448 158.8 196.168C158.8 194.888 158.554 193.811 158.064 192.936C157.573 192.04 156.922 191.368 156.112 190.92C155.301 190.472 154.426 190.248 153.488 190.248C152.549 190.248 151.674 190.472 150.864 190.92C150.074 191.368 149.445 192.04 148.976 192.936C148.506 193.811 148.272 194.888 148.272 196.168C148.272 198.067 148.752 199.539 149.712 200.584C150.693 201.608 151.92 202.12 153.392 202.12ZM187.494 187.08C188.881 187.08 190.118 187.368 191.206 187.944C192.315 188.52 193.179 189.373 193.798 190.504C194.438 191.635 194.758 193 194.758 194.6V205H191.142V195.144C191.142 193.565 190.747 192.36 189.958 191.528C189.169 190.675 188.091 190.248 186.726 190.248C185.361 190.248 184.273 190.675 183.462 191.528C182.673 192.36 182.278 193.565 182.278 195.144V205H178.662V195.144C178.662 193.565 178.267 192.36 177.478 191.528C176.689 190.675 175.611 190.248 174.246 190.248C172.881 190.248 171.793 190.675 170.982 191.528C170.193 192.36 169.798 193.565 169.798 195.144V205H166.15V187.368H169.798V189.384C170.395 188.659 171.153 188.093 172.07 187.688C172.987 187.283 173.969 187.08 175.014 187.08C176.422 187.08 177.681 187.379 178.79 187.976C179.899 188.573 180.753 189.437 181.35 190.568C181.883 189.501 182.715 188.659 183.846 188.04C184.977 187.4 186.193 187.08 187.494 187.08ZM215.56 195.752C215.56 196.413 215.517 197.011 215.432 197.544H201.96C202.067 198.952 202.589 200.083 203.528 200.936C204.467 201.789 205.619 202.216 206.984 202.216C208.947 202.216 210.333 201.395 211.144 199.752H215.08C214.547 201.373 213.576 202.707 212.168 203.752C210.781 204.776 209.053 205.288 206.984 205.288C205.299 205.288 203.784 204.915 202.44 204.168C201.117 203.4 200.072 202.333 199.304 200.968C198.557 199.581 198.184 197.981 198.184 196.168C198.184 194.355 198.547 192.765 199.272 191.4C200.019 190.013 201.053 188.947 202.376 188.2C203.72 187.453 205.256 187.08 206.984 187.08C208.648 187.08 210.131 187.443 211.432 188.168C212.733 188.893 213.747 189.917 214.472 191.24C215.197 192.541 215.56 194.045 215.56 195.752ZM211.752 194.6C211.731 193.256 211.251 192.179 210.312 191.368C209.373 190.557 208.211 190.152 206.824 190.152C205.565 190.152 204.488 190.557 203.592 191.368C202.696 192.157 202.163 193.235 201.992 194.6H211.752ZM231.719 190.344V200.104C231.719 200.765 231.868 201.245 232.167 201.544C232.487 201.821 233.02 201.96 233.767 201.96H236.007V205H233.127C231.484 205 230.225 204.616 229.351 203.848C228.476 203.08 228.039 201.832 228.039 200.104V190.344H225.959V187.368H228.039V182.984H231.719V187.368H236.007V190.344H231.719ZM247.017 205.288C245.353 205.288 243.849 204.915 242.505 204.168C241.161 203.4 240.105 202.333 239.337 200.968C238.569 199.581 238.185 197.981 238.185 196.168C238.185 194.376 238.579 192.787 239.369 191.4C240.158 190.013 241.235 188.947 242.601 188.2C243.966 187.453 245.491 187.08 247.177 187.08C248.862 187.08 250.387 187.453 251.753 188.2C253.118 188.947 254.195 190.013 254.985 191.4C255.774 192.787 256.169 194.376 256.169 196.168C256.169 197.96 255.763 199.549 254.953 200.936C254.142 202.323 253.033 203.4 251.625 204.168C250.238 204.915 248.702 205.288 247.017 205.288ZM247.017 202.12C247.955 202.12 248.83 201.896 249.641 201.448C250.473 201 251.145 200.328 251.657 199.432C252.169 198.536 252.425 197.448 252.425 196.168C252.425 194.888 252.179 193.811 251.689 192.936C251.198 192.04 250.547 191.368 249.737 190.92C248.926 190.472 248.051 190.248 247.113 190.248C246.174 190.248 245.299 190.472 244.489 190.92C243.699 191.368 243.07 192.04 242.601 192.936C242.131 193.811 241.897 194.888 241.897 196.168C241.897 198.067 242.377 199.539 243.337 200.584C244.318 201.608 245.545 202.12 247.017 202.12ZM289.432 187.08C290.818 187.08 292.056 187.368 293.144 187.944C294.253 188.52 295.117 189.373 295.736 190.504C296.376 191.635 296.696 193 296.696 194.6V205H293.08V195.144C293.08 193.565 292.685 192.36 291.896 191.528C291.106 190.675 290.029 190.248 288.664 190.248C287.298 190.248 286.21 190.675 285.4 191.528C284.61 192.36 284.216 193.565 284.216 195.144V205H280.6V195.144C280.6 193.565 280.205 192.36 279.416 191.528C278.626 190.675 277.549 190.248 276.184 190.248C274.818 190.248 273.73 190.675 272.92 191.528C272.13 192.36 271.736 193.565 271.736 195.144V205H268.088V187.368H271.736V189.384C272.333 188.659 273.09 188.093 274.008 187.688C274.925 187.283 275.906 187.08 276.952 187.08C278.36 187.08 279.618 187.379 280.728 187.976C281.837 188.573 282.69 189.437 283.288 190.568C283.821 189.501 284.653 188.659 285.784 188.04C286.914 187.4 288.13 187.08 289.432 187.08ZM317.21 187.368L306.394 213.288H302.618L306.202 204.712L299.258 187.368H303.322L308.282 200.808L313.434 187.368H317.21ZM344.371 189.16C343.795 188.051 342.995 187.219 341.971 186.664C340.947 186.088 339.763 185.8 338.419 185.8C336.947 185.8 335.635 186.131 334.483 186.792C333.331 187.453 332.424 188.392 331.763 189.608C331.123 190.824 330.803 192.232 330.803 193.832C330.803 195.432 331.123 196.851 331.763 198.088C332.424 199.304 333.331 200.243 334.483 200.904C335.635 201.565 336.947 201.896 338.419 201.896C340.403 201.896 342.014 201.341 343.251 200.232C344.488 199.123 345.246 197.619 345.523 195.72H337.171V192.808H349.427V195.656C349.192 197.384 348.574 198.973 347.571 200.424C346.59 201.875 345.299 203.037 343.699 203.912C342.12 204.765 340.36 205.192 338.419 205.192C336.328 205.192 334.419 204.712 332.691 203.752C330.963 202.771 329.587 201.416 328.563 199.688C327.56 197.96 327.059 196.008 327.059 193.832C327.059 191.656 327.56 189.704 328.563 187.976C329.587 186.248 330.963 184.904 332.691 183.944C334.44 182.963 336.35 182.472 338.419 182.472C340.787 182.472 342.888 183.059 344.723 184.232C346.579 185.384 347.923 187.027 348.755 189.16H344.371ZM354.881 185.032C354.22 185.032 353.665 184.808 353.217 184.36C352.769 183.912 352.545 183.357 352.545 182.696C352.545 182.035 352.769 181.48 353.217 181.032C353.665 180.584 354.22 180.36 354.881 180.36C355.521 180.36 356.065 180.584 356.513 181.032C356.961 181.48 357.185 182.035 357.185 182.696C357.185 183.357 356.961 183.912 356.513 184.36C356.065 184.808 355.521 185.032 354.881 185.032ZM356.673 187.368V205H353.025V187.368H356.673ZM365.719 190.344V200.104C365.719 200.765 365.868 201.245 366.167 201.544C366.487 201.821 367.02 201.96 367.767 201.96H370.007V205H367.127C365.484 205 364.225 204.616 363.351 203.848C362.476 203.08 362.039 201.832 362.039 200.104V190.344H359.959V187.368H362.039V182.984H365.719V187.368H370.007V190.344H365.719ZM391.129 182.76V205H387.481V195.272H377.017V205H373.369V182.76H377.017V192.296H387.481V182.76H391.129ZM411.899 187.368V205H408.251V202.92C407.675 203.645 406.918 204.221 405.979 204.648C405.062 205.053 404.081 205.256 403.035 205.256C401.649 205.256 400.401 204.968 399.291 204.392C398.203 203.816 397.339 202.963 396.699 201.832C396.081 200.701 395.771 199.336 395.771 197.736V187.368H399.387V197.192C399.387 198.771 399.782 199.987 400.571 200.84C401.361 201.672 402.438 202.088 403.803 202.088C405.169 202.088 406.246 201.672 407.035 200.84C407.846 199.987 408.251 198.771 408.251 197.192V187.368H411.899ZM420.361 189.992C420.979 189.139 421.822 188.445 422.889 187.912C423.977 187.357 425.182 187.08 426.505 187.08C428.062 187.08 429.47 187.453 430.729 188.2C431.987 188.947 432.979 190.013 433.705 191.4C434.43 192.765 434.793 194.333 434.793 196.104C434.793 197.875 434.43 199.464 433.705 200.872C432.979 202.259 431.977 203.347 430.697 204.136C429.438 204.904 428.041 205.288 426.505 205.288C425.139 205.288 423.923 205.021 422.857 204.488C421.811 203.955 420.979 203.272 420.361 202.44V205H416.713V181.32H420.361V189.992ZM431.081 196.104C431.081 194.888 430.825 193.843 430.312 192.968C429.822 192.072 429.161 191.4 428.329 190.952C427.518 190.483 426.643 190.248 425.705 190.248C424.787 190.248 423.913 190.483 423.081 190.952C422.27 191.421 421.609 192.104 421.097 193C420.606 193.896 420.361 194.952 420.361 196.168C420.361 197.384 420.606 198.451 421.097 199.368C421.609 200.264 422.27 200.947 423.081 201.416C423.913 201.885 424.787 202.12 425.705 202.12C426.643 202.12 427.518 201.885 428.329 201.416C429.161 200.925 429.822 200.221 430.312 199.304C430.825 198.387 431.081 197.32 431.081 196.104Z" fill="#F1F3FF"/>
<defs>
<filter id="filter0_f_56_2699" x="190" y="0" width="300" height="300" filterUnits="userSpaceOnUse" color-interpolation-filters="sRGB">
<feFlood flood-opacity="0" result="BackgroundImageFix"/>
<feBlend mode="normal" in="SourceGraphic" in2="BackgroundImageFix" result="shape"/>
<feGaussianBlur stdDeviation="50" result="effect1_foregroundBlur_56_2699"/>
</filter>
<filter id="filter1_f_56_2699" x="161" y="71" width="258" height="258" filterUnits="userSpaceOnUse" color-interpolation-filters="sRGB">
<feFlood flood-opacity="0" result="BackgroundImageFix"/>
<feBlend mode="normal" in="SourceGraphic" in2="BackgroundImageFix" result="shape"/>
<feGaussianBlur stdDeviation="50" result="effect1_foregroundBlur_56_2699"/>
</filter>
<filter id="filter2_f_56_2699" x="0" y="66" width="294" height="294" filterUnits="userSpaceOnUse" color-interpolation-filters="sRGB">
<feFlood flood-opacity="0" result="BackgroundImageFix"/>
<feBlend mode="normal" in="SourceGraphic" in2="BackgroundImageFix" result="shape"/>
<feGaussianBlur stdDeviation="50" result="effect1_foregroundBlur_56_2699"/>
</filter>
</defs>
</svg>
