<svg width="292" height="112" viewBox="0 0 292 112" fill="none" xmlns="http://www.w3.org/2000/svg">
<path d="M234.815 57.2441C231.603 51.934 233.305 45.0261 238.615 41.8147C243.925 38.6033 250.833 40.3046 254.044 45.6146L278.477 86.0139C281.688 91.324 279.987 98.2319 274.677 101.443C269.367 104.655 262.459 102.953 259.247 97.6433L234.815 57.2441Z" fill="#0D63A5"/>
<circle cx="251.5" cy="32.5" r="27.5" fill="#0779E4"/>
<path d="M224 28C224 15.2975 234.297 5 247 5V92.4327C247 99.3734 241.373 105 234.433 105C228.671 105 224 100.329 224 94.5673V28Z" fill="#083358"/>
<circle cx="196.5" cy="74.5" r="27.5" fill="#083358"/>
<path d="M163.046 58.4342C161.091 60.4002 157.909 60.4002 155.954 58.4342L127.707 30.0255C124.571 26.8715 126.805 21.5 131.252 21.5L187.748 21.5C192.195 21.5 194.429 26.8715 191.293 30.0255L163.046 58.4342Z" fill="#0779E4"/>
<circle cx="121.9" cy="75.0576" r="27.5" fill="#0779E4"/>
<path d="M224 74.5C224 89.6878 211.688 102 196.5 102C181.312 102 169 89.6878 169 74.5C169 59.3122 181.312 47 196.5 47C211.688 47 224 59.3122 224 74.5ZM186.375 74.5C186.375 80.0917 190.908 84.6246 196.5 84.6246C202.092 84.6246 206.625 80.0917 206.625 74.5C206.625 68.9083 202.092 64.3754 196.5 64.3754C190.908 64.3754 186.375 68.9083 186.375 74.5Z" fill="#0779E4"/>
<path d="M70.3995 68.5576C70.3995 61.9302 75.7721 56.5576 82.3995 56.5576C89.027 56.5576 94.3995 61.9302 94.3995 68.5576V94.5576C94.3995 98.9759 90.8178 102.558 86.3995 102.558H70.3995V68.5576Z" fill="#0779E4"/>
<path d="M149 31C149 25.4772 153.477 21 159 21C164.523 21 169 25.4772 169 31V98C169 100.761 166.761 103 164 103H161C154.373 103 149 97.6274 149 91V31Z" fill="#083358"/>
<path d="M70.3995 42.0576C70.3995 35.7063 75.5483 30.5576 81.8995 30.5576H82.8995C89.2508 30.5576 94.3995 35.7063 94.3995 42.0576C94.3995 48.4089 89.2508 53.5576 82.8995 53.5576H81.8995C75.5483 53.5576 70.3995 48.4089 70.3995 42.0576Z" fill="#0779E4"/>
<path d="M70.3995 42.0576C70.3995 35.7063 75.5483 30.5576 81.8995 30.5576L94.3995 30.5576V42.0576C94.3995 48.4089 89.2508 53.5576 82.8995 53.5576H81.8995C75.5483 53.5576 70.3995 48.4089 70.3995 42.0576Z" fill="#FFD717"/>
<path d="M50.1562 21.5446C53.5757 10.4621 65.3318 4.25002 76.4142 7.66945L80.8106 9.02595C81.8661 9.35161 82.4577 10.4712 82.1321 11.5267L57.6852 90.7597C55.2295 98.7186 46.7868 103.18 38.8278 100.724C32.2208 98.6856 28.5173 91.6769 30.5558 85.0699L50.1562 21.5446Z" fill="#083358"/>
<path d="M5.25686 30.8451C2.35358 19.6164 9.10267 8.16015 20.3314 5.25687C31.5601 2.35358 43.0164 9.10268 45.9196 20.3314L60.4386 76.4847C63.3419 87.7135 56.5928 99.1697 45.3641 102.073C34.1354 104.976 22.6791 98.2272 19.7758 86.9985L5.25686 30.8451Z" fill="#0779E4"/>
<path d="M5.25686 30.8451C2.35358 19.6164 9.10267 8.16015 20.3314 5.25687C31.5601 2.35358 43.0164 9.10268 45.9196 20.3314L60.4386 76.4847C63.3419 87.7135 56.5928 99.1697 45.3641 102.073C34.1354 104.976 22.6791 98.2272 19.7758 86.9985L5.25686 30.8451Z" fill="#0779E4"/>
<path d="M17 112C14.7909 112 13 110.209 13 108C13 105.791 14.7909 104 17 104L288 104C290.209 104 292 105.791 292 108C292 110.209 290.209 112 288 112L17 112Z" fill="#FFD717"/>
<path d="M129.327 57.6255C131.179 53.2807 129.124 48.1066 124.422 47.6735C121.517 47.406 118.571 47.6006 115.694 48.267C110.017 49.582 104.904 52.6664 101.094 57.0752C97.2832 61.484 94.9717 66.9893 94.4926 72.7969C94.0136 78.6045 95.3917 84.4141 98.4283 89.3877C101.465 94.3613 106.003 98.2417 111.388 100.469C116.772 102.697 122.726 103.156 128.388 101.781C134.051 100.406 139.131 97.2679 142.894 92.819C144.802 90.5645 146.321 88.0324 147.41 85.3266C149.174 80.9455 145.51 76.7541 140.799 76.4156L138.808 76.2725C135.197 76.0131 132.175 79.0092 129.837 81.773C128.414 83.455 126.494 84.6416 124.353 85.1614C122.212 85.6813 119.961 85.5076 117.925 84.6654C115.889 83.8232 114.173 82.3561 113.025 80.4756C111.877 78.5952 111.356 76.3986 111.537 74.2029C111.718 72.0071 112.592 69.9256 114.033 68.2587C115.474 66.5918 117.407 65.4256 119.553 64.9284C123.08 64.1115 127.126 62.7926 128.545 59.4622L129.327 57.6255Z" fill="#083358"/>
</svg>
